<?xml version="1.0" standalone="no"?>
<!DOCTYPE svg PUBLIC "-//W3C//DTD SVG 20010904//EN"
 "http://www.w3.org/TR/2001/REC-SVG-20010904/DTD/svg10.dtd">
<svg version="1.0" xmlns="http://www.w3.org/2000/svg"
 width="1061.000000pt" height="1061.000000pt" viewBox="0 0 1061.000000 1061.000000"
 preserveAspectRatio="xMidYMid meet">
<metadata>
Created by potrace 1.14, written by Peter Selinger 2001-2017
</metadata>
<g transform="translate(0.000000,1061.000000) scale(0.100000,-0.100000)"
fill="#000000" stroke="none">
<path d="M863 10535 c-384 -69 -675 -339 -780 -720 l-28 -100 0 -4425 0 -4425
28 -100 c81 -298 278 -528 553 -649 95 -41 170 -61 284 -75 117 -15 8661 -15
8780 -1 454 56 792 384 860 835 7 49 10 1417 8 4460 l-3 4390 -22 82 c-105
387 -408 666 -793 729 -122 20 -8776 19 -8887 -1z m4969 -2557 l3 -693 1488
-3 1487 -2 -2 -378 -3 -377 -3440 0 -3440 0 -3 378 -2 377 1500 0 1500 0 0
695 0 695 455 0 455 0 2 -692z m-2 -2212 c425 -58 750 -155 1060 -318 388
-203 677 -481 854 -820 192 -368 223 -812 84 -1218 -223 -652 -877 -1135
-1768 -1305 -237 -45 -428 -58 -770 -52 -376 6 -582 33 -874 113 -573 157
-1013 446 -1301 854 -111 157 -216 419 -251 625 -24 141 -24 426 0 560 43 242
145 474 299 681 113 151 331 347 519 467 372 236 897 395 1428 431 129 9 610
-4 720 -18z"/>
<path d="M5025 4990 c-281 -43 -506 -114 -683 -214 -275 -155 -451 -351 -528
-586 -24 -74 -28 -105 -32 -237 -4 -139 -2 -160 22 -255 27 -103 83 -229 134
-297 220 -298 584 -491 1067 -568 155 -25 583 -25 740 0 750 118 1237 551
1235 1097 -2 423 -321 786 -851 968 -132 46 -254 74 -417 96 -162 23 -527 20
-687 -4z"/>
</g>
</svg>
