<?xml version="1.0" standalone="no"?>
<!DOCTYPE svg PUBLIC "-//W3C//DTD SVG 20010904//EN"
 "http://www.w3.org/TR/2001/REC-SVG-20010904/DTD/svg10.dtd">
<svg version="1.0" xmlns="http://www.w3.org/2000/svg"
 width="1061.000000pt" height="1061.000000pt" viewBox="0 0 1061.000000 1061.000000"
 preserveAspectRatio="xMidYMid meet">
<metadata>
Created by potrace 1.14, written by Peter Selinger 2001-2017
</metadata>
<g transform="translate(0.000000,1061.000000) scale(0.100000,-0.100000)"
fill="#000000" stroke="none">
<path d="M870 10538 c-291 -41 -575 -251 -714 -525 -41 -83 -82 -214 -96 -308
-13 -97 -13 -8733 0 -8830 65 -447 407 -779 860 -834 71 -9 1205 -11 4455 -9
4154 3 4364 4 4435 21 97 24 228 79 312 133 77 49 203 166 253 235 94 127 162
290 185 444 7 49 10 1422 8 4475 l-3 4405 -33 105 c-67 210 -180 373 -349 503
-126 96 -292 165 -446 186 -101 14 -8770 13 -8867 -1z m4960 -2563 l0 -695
1485 0 1485 0 0 -380 0 -380 -3435 0 -3435 0 0 380 0 380 1495 0 1495 0 0 695
0 695 455 0 455 0 0 -695z m-176 -2195 c918 -66 1670 -456 2035 -1054 273
-445 296 -1023 61 -1498 -245 -495 -751 -875 -1412 -1058 -123 -34 -373 -83
-508 -100 -139 -17 -598 -24 -771 -11 -642 47 -1203 256 -1610 598 -432 363
-645 863 -599 1405 13 157 21 199 66 344 103 336 351 658 689 895 303 212 737
375 1183 444 279 43 580 55 866 35z"/>
<path d="M5255 5014 c-481 -23 -919 -183 -1187 -433 -219 -205 -313 -450 -287
-751 45 -531 575 -933 1332 -1010 152 -16 506 -8 647 15 665 104 1141 480
1211 955 88 606 -442 1106 -1281 1209 -96 12 -330 20 -435 15z"/>
</g>
</svg>
