<svg id="Layer_1" enable-background="new 0 0 128 128" height="512" viewBox="0 0 128 128" width="512" xmlns="http://www.w3.org/2000/svg"><path id="Paper_Clip" fill="#12B886" d="m68 120c-17.645 0-32-14.355-32-32v-40c0-2.209 1.791-4 4-4s4 1.791 4 4v40c0 13.234 10.766 24 24 24s24-10.766 24-24v-56c0-8.822-7.178-16-16-16s-16 7.178-16 16v56c0 4.412 3.588 8 8 8s8-3.588 8-8v-40c0-2.209 1.791-4 4-4s4 1.791 4 4v40c0 8.822-7.178 16-16 16s-16-7.178-16-16v-56c0-13.234 10.766-24 24-24s24 10.766 24 24v56c0 17.645-14.355 32-32 32z"/></svg>